<?xml version="1.0" encoding="UTF-8" standalone="no"?>
<!-- Created with Inkscape (http://www.inkscape.org/) -->

<svg
   version="1.1"
   id="svg1"
   width="680"
   height="220"
   viewBox="0 0 680 220"
   xml:space="preserve"
   xmlns="http://www.w3.org/2000/svg"
   xmlns:svg="http://www.w3.org/2000/svg"><defs
     id="defs1" /><g
     id="layer1"
     style="display:inline"
     transform="translate(645.94455,-4.5623762)"><path
       style="display:inline;fill:#2079a1;fill-opacity:1;stroke:#2079a1;stroke-width:4.62317;stroke-linecap:round;stroke-linejoin:round;stroke-dasharray:none;stroke-opacity:1"
       id="path4"
       d="m -508.84432,51.004246 5.14533,10.73793 11.80522,1.553849 -8.62237,8.211708 2.17021,11.707597 -10.47426,-5.662817 -10.46395,5.681845 2.14892,-11.711521 -8.63729,-8.196023 11.80238,-1.575303 z" /><path
       style="fill:none;fill-opacity:1;stroke:#2079a1;stroke-width:11.6504;stroke-linecap:round;stroke-linejoin:round;stroke-dasharray:none;stroke-opacity:1"
       d="m -507.89685,197.79541 c -17.53881,-35.0776 -22.65723,-46.87483 -33.21509,-77.76054 -10.39912,-30.421292 -20.03731,-66.833714 -18.00444,-72.949017 1.4396,-4.33065 16.27601,-18.381648 53.08206,-17.228386 35.83331,1.122783 45.98123,5.982736 48.89136,12.261642 1.6444,3.547984 4.85529,12.513649 -10.0887,56.186264 -11.63069,33.989717 -28.71397,63.636377 -28.71397,63.636377"
       id="path5" /><path
       style="fill:none;stroke:#2079a1;stroke-width:11.6504;stroke-linecap:round;stroke-dasharray:none;stroke-opacity:1"
       d="m -577.56485,69.447084 c -7.93513,-33.610288 -45.8884,-20.442221 -44.1684,8.239091 1.34842,22.485165 12.56259,35.673475 20.69738,42.680585 9.27459,7.9889 23.32037,17.8861 46.34134,20.5844"
       id="path3" /><path
       style="fill:none;stroke:#2079a1;stroke-width:11.6504;stroke-linecap:round;stroke-dasharray:none;stroke-opacity:1"
       d="m -438.58628,68.51582 c 7.93515,-33.610289 45.88841,-20.442222 44.16842,8.239091 -1.34844,22.485155 -12.56262,35.673479 -20.69741,42.680589 -9.27457,7.9889 -23.32037,17.8861 -46.34134,20.5844"
       id="path2" /></g><path
     style="font-weight:800;font-size:40px;line-height:0;font-family:Nunito;-inkscape-font-specification:'Nunito Ultra-Bold';letter-spacing:1.5px;word-spacing:0px;stroke-width:1.3;stroke-linecap:round;stroke-linejoin:round"
     d="m 308.29646,50.568693 q -4.56,0 -7.8,-1.8 -3.24,-1.8 -5,-5.04 -1.72,-3.28 -1.72,-7.72 0,-3.32 0.96,-5.96 1,-2.68 2.88,-4.56 1.88,-1.92 4.56,-2.96 2.72,-1.04 6.12,-1.04 2,0 4.04,0.52 2.08,0.48 3.6,1.4 1,0.56 1.36,1.4 0.36,0.84 0.2,1.68 -0.12,0.84 -0.68,1.44 -0.52,0.6 -1.32,0.76 -0.8,0.16 -1.8,-0.36 -1.2,-0.72 -2.52,-1.04 -1.32,-0.32 -2.68,-0.32 -2.68,0 -4.52,1.08 -1.8,1.04 -2.72,3.04 -0.92,2 -0.92,4.92 0,2.88 0.92,4.92 0.92,2.04 2.72,3.12 1.84,1.04 4.52,1.04 1.28,0 2.6,-0.32 1.36,-0.32 2.6,-1 1.04,-0.52 1.84,-0.36 0.84,0.12 1.36,0.72 0.56,0.56 0.68,1.36 0.16,0.8 -0.16,1.6 -0.32,0.8 -1.2,1.36 -1.48,1 -3.64,1.56 -2.16,0.56 -4.28,0.56 z m 22.70001,0 q -3.16,0 -5.52,-1.24 -2.32,-1.24 -3.6,-3.56 -1.28,-2.32 -1.28,-5.48 0,-2.36 0.72,-4.24 0.72,-1.88 2.08,-3.2 1.4,-1.36 3.32,-2.04 1.92,-0.72 4.28,-0.72 3.16,0 5.48,1.24 2.36,1.24 3.64,3.52 1.32,2.28 1.32,5.44 0,2.4 -0.76,4.28 -0.72,1.88 -2.08,3.24 -1.36,1.36 -3.32,2.08 -1.92,0.68 -4.28,0.68 z m 0,-4.52 q 1.32,0 2.28,-0.64 0.96,-0.64 1.52,-1.88 0.56,-1.28 0.56,-3.24 0,-2.92 -1.2,-4.28 -1.2,-1.4 -3.16,-1.4 -1.28,0 -2.28,0.6 -0.96,0.6 -1.52,1.88 -0.52,1.24 -0.52,3.2 0,2.92 1.2,4.36 1.2,1.4 3.12,1.4 z m 18.74002,4.44 q -1.48,0 -2.28,-0.8 -0.76,-0.8 -0.76,-2.28 v -14.2 q 0,-1.48 0.76,-2.24 0.8,-0.8 2.2,-0.8 1.44,0 2.2,0.8 0.76,0.76 0.76,2.24 v 2.56 l -0.44,-1.6 q 0.8,-1.84 2.48,-2.96 1.68,-1.12 3.96,-1.12 2.28,0 3.8,1.08 1.52,1.08 2.16,3.32 h -0.56 q 0.88,-2.04 2.68,-3.2 1.84,-1.2 4.2,-1.2 2.28,0 3.72,0.92 1.48,0.88 2.2,2.72 0.72,1.8 0.72,4.6 v 9.08 q 0,1.48 -0.8,2.28 -0.76,0.8 -2.2,0.8 -1.48,0 -2.28,-0.8 -0.76,-0.8 -0.76,-2.28 v -8.88 q 0,-1.96 -0.64,-2.84 -0.6,-0.92 -2.08,-0.92 -1.72,0 -2.68,1.2 -0.96,1.2 -0.96,3.4 v 8.04 q 0,1.48 -0.8,2.28 -0.76,0.8 -2.2,0.8 -1.44,0 -2.24,-0.8 -0.8,-0.8 -0.8,-2.28 v -8.88 q 0,-1.96 -0.64,-2.84 -0.6,-0.92 -2.08,-0.92 -1.72,0 -2.68,1.2 -0.96,1.2 -0.96,3.4 v 8.04 q 0,3.08 -3,3.08 z m 36.98,7.2 q -1.48,0 -2.28,-0.8 -0.76,-0.76 -0.76,-2.28 v -21.4 q 0,-1.48 0.76,-2.24 0.8,-0.8 2.2,-0.8 1.48,0 2.24,0.8 0.76,0.76 0.76,2.24 v 2.72 l -0.44,-1.56 q 0.6,-1.92 2.4,-3.08 1.84,-1.2 4.2,-1.2 2.56,0 4.48,1.24 1.96,1.24 3.04,3.52 1.08,2.28 1.08,5.44 0,3.16 -1.08,5.48 -1.08,2.32 -3,3.56 -1.92,1.24 -4.52,1.24 -2.32,0 -4.12,-1.12 -1.8,-1.16 -2.44,-3 h 0.48 v 8.16 q 0,1.52 -0.8,2.28 -0.76,0.8 -2.2,0.8 z m 7.28,-11.64 q 1.28,0 2.24,-0.64 1,-0.64 1.52,-1.88 0.56,-1.28 0.56,-3.24 0,-2.92 -1.2,-4.28 -1.2,-1.4 -3.12,-1.4 -1.28,0 -2.28,0.6 -0.96,0.6 -1.52,1.88 -0.56,1.24 -0.56,3.2 0,2.92 1.2,4.36 1.2,1.4 3.16,1.4 z m 25.78003,4.52 q -3.48,0 -6,-1.24 -2.48,-1.28 -3.84,-3.56 -1.32,-2.32 -1.32,-5.44 0,-3.04 1.28,-5.32 1.28,-2.32 3.56,-3.6 2.32,-1.32 5.24,-1.32 2.12,0 3.84,0.72 1.72,0.68 2.96,2 1.24,1.28 1.88,3.16 0.64,1.84 0.64,4.12 0,0.76 -0.48,1.16 -0.48,0.36 -1.4,0.36 h -12.56 v -3.12 h 10.08 l -0.64,0.56 q 0,-1.64 -0.48,-2.72 -0.48,-1.12 -1.4,-1.68 -0.88,-0.56 -2.2,-0.56 -1.48,0 -2.52,0.68 -1.04,0.68 -1.6,1.96 -0.56,1.28 -0.56,3.08 v 0.32 q 0,3.04 1.4,4.48 1.44,1.44 4.24,1.44 0.96,0 2.2,-0.24 1.24,-0.24 2.32,-0.76 0.92,-0.44 1.64,-0.28 0.72,0.12 1.12,0.64 0.4,0.52 0.44,1.2 0.08,0.68 -0.28,1.36 -0.36,0.64 -1.2,1.08 -1.36,0.76 -3.08,1.12 -1.68,0.4 -3.28,0.4 z m 22.78234,0 q -2.76,0 -4.64,-0.92 -1.84,-0.92 -2.76,-2.68 -0.88,-1.76 -0.88,-4.44 v -7.52 h -1.68 q -1.12,0 -1.76,-0.6 -0.6,-0.6 -0.6,-1.64 0,-1.12 0.6,-1.68 0.64,-0.6 1.76,-0.6 h 1.68 v -3.04 q 0,-1.52 0.8,-2.28 0.8,-0.8 2.24,-0.8 1.48,0 2.24,0.8 0.76,0.76 0.76,2.28 v 3.04 h 3.8 q 1.12,0 1.72,0.6 0.6,0.56 0.6,1.68 0,1.04 -0.6,1.64 -0.6,0.6 -1.72,0.6 h -3.8 v 7.28 q 0,1.68 0.76,2.52 0.8,0.84 2.52,0.84 0.6,0 1.12,-0.12 0.52,-0.12 0.96,-0.16 0.56,-0.04 0.92,0.36 0.36,0.36 0.36,1.64 0,0.96 -0.32,1.68 -0.32,0.72 -1.12,1.04 -0.52,0.2 -1.44,0.32 -0.88,0.16 -1.52,0.16 z m 11.66766,-0.12 q -1.48,0 -2.28,-0.84 -0.76,-0.88 -0.76,-2.44 v -13.68 q 0,-1.6 0.76,-2.44 0.8,-0.88 2.28,-0.88 1.44,0 2.2,0.88 0.8,0.84 0.8,2.44 v 13.68 q 0,1.56 -0.76,2.44 -0.76,0.84 -2.24,0.84 z m 0,-23.56 q -1.68,0 -2.6,-0.76 -0.88,-0.8 -0.88,-2.24 0,-1.48 0.88,-2.24 0.92,-0.8 2.6,-0.8 1.68,0 2.56,0.8 0.88,0.76 0.88,2.24 0,1.44 -0.88,2.24 -0.88,0.76 -2.56,0.76 z m 18.81998,23.68 q -2.76,0 -4.64,-0.92 -1.84,-0.92 -2.76,-2.68 -0.88,-1.76 -0.88,-4.44 v -7.52 h -1.68 q -1.12,0 -1.76,-0.6 -0.6,-0.6 -0.6,-1.64 0,-1.12 0.6,-1.68 0.64,-0.6 1.76,-0.6 h 1.68 v -3.04 q 0,-1.52 0.8,-2.28 0.8,-0.8 2.24,-0.8 1.48,0 2.24,0.8 0.76,0.76 0.76,2.28 v 3.04 h 3.8 q 1.12,0 1.72,0.6 0.6,0.56 0.6,1.68 0,1.04 -0.6,1.64 -0.6,0.6 -1.72,0.6 h -3.8 v 7.28 q 0,1.68 0.76,2.52 0.8,0.84 2.52,0.84 0.6,0 1.12,-0.12 0.52,-0.12 0.96,-0.16 0.56,-0.04 0.92,0.36 0.36,0.36 0.36,1.64 0,0.96 -0.32,1.68 -0.32,0.72 -1.12,1.04 -0.52,0.2 -1.44,0.32 -0.88,0.16 -1.52,0.16 z m 11.66766,-0.12 q -1.48,0 -2.28,-0.84 -0.76,-0.88 -0.76,-2.44 v -13.68 q 0,-1.6 0.76,-2.44 0.8,-0.88 2.28,-0.88 1.44,0 2.2,0.88 0.8,0.84 0.8,2.44 v 13.68 q 0,1.56 -0.76,2.44 -0.76,0.84 -2.24,0.84 z m 0,-23.56 q -1.68,0 -2.6,-0.76 -0.88,-0.8 -0.88,-2.24 0,-1.48 0.88,-2.24 0.92,-0.8 2.6,-0.8 1.68,0 2.56,0.8 0.88,0.76 0.88,2.24 0,1.44 -0.88,2.24 -0.88,0.76 -2.56,0.76 z m 17.49998,23.6 q -1.16,0 -2.04,-0.6 -0.88,-0.64 -1.4,-1.88 l -6.04,-13.92 q -0.44,-1.04 -0.32,-1.92 0.12,-0.92 0.84,-1.44 0.76,-0.56 2.08,-0.56 1.08,0 1.76,0.52 0.68,0.48 1.2,1.88 l 4.72,12 h -1.28 l 4.92,-12.04 q 0.56,-1.36 1.24,-1.84 0.68,-0.52 1.88,-0.52 1.04,0 1.64,0.56 0.64,0.52 0.76,1.4 0.16,0.88 -0.32,1.92 l -6.16,13.96 q -0.52,1.28 -1.4,1.88 -0.84,0.6 -2.08,0.6 z m 24.27737,0.08 q -3.48,0 -6,-1.24 -2.48,-1.28 -3.84,-3.56 -1.32,-2.32 -1.32,-5.44 0,-3.04 1.28,-5.32 1.28,-2.32 3.56,-3.6 2.32,-1.32 5.24,-1.32 2.12,0 3.84,0.72 1.72,0.68 2.96,2 1.24,1.28 1.88,3.16 0.64,1.84 0.64,4.12 0,0.76 -0.48,1.16 -0.48,0.36 -1.4,0.36 h -12.56 v -3.12 h 10.08 l -0.64,0.56 q 0,-1.64 -0.48,-2.72 -0.48,-1.12 -1.4,-1.68 -0.88,-0.56 -2.2,-0.56 -1.48,0 -2.52,0.68 -1.04,0.68 -1.6,1.96 -0.56,1.28 -0.56,3.08 v 0.32 q 0,3.04 1.4,4.48 1.44,1.44 4.24,1.44 0.96,0 2.2,-0.24 1.24,-0.24 2.32,-0.76 0.92,-0.44 1.64,-0.28 0.72,0.12 1.12,0.64 0.4,0.52 0.44,1.2 0.08,0.68 -0.28,1.36 -0.36,0.64 -1.2,1.08 -1.36,0.76 -3.08,1.12 -1.68,0.4 -3.28,0.4 z"
     id="text4"
     aria-label="Competitive" /><path
     style="font-weight:800;font-size:40px;line-height:0;font-family:Nunito;-inkscape-font-specification:'Nunito Ultra-Bold';letter-spacing:1.5px;word-spacing:0px;stroke-width:1.3;stroke-linecap:round;stroke-linejoin:round"
     d="m 298.58231,96.162704 q -1.52,0 -2.32,-0.84 -0.8,-0.84 -0.8,-2.36 v -22.2 q 0,-1.56 0.8,-2.36 0.84,-0.8 2.36,-0.8 h 9.72 q 4.72,0 7.28,2.4 2.56,2.36 2.56,6.6 0,4.24 -2.56,6.64 -2.56,2.4 -7.28,2.4 h -6.68 v 7.32 q 0,1.52 -0.8,2.36 -0.76,0.84 -2.28,0.84 z m 3.08,-15.32 h 5.64 q 2.4,0 3.64,-1.08 1.28,-1.08 1.28,-3.16 0,-2.08 -1.28,-3.12 -1.24,-1.04 -3.64,-1.04 h -5.64 z m 24.05998,15.32 q -1.52,0 -2.32,-0.8 -0.8,-0.8 -0.8,-2.28 v -14.2 q 0,-1.48 0.76,-2.24 0.8,-0.8 2.2,-0.8 1.44,0 2.2,0.8 0.76,0.76 0.76,2.24 v 2.08 h -0.4 q 0.48,-2.4 2.12,-3.72 1.64,-1.32 4.24,-1.48 1,-0.08 1.52,0.52 0.56,0.56 0.6,1.88 0.08,1.24 -0.52,1.96 -0.56,0.72 -1.92,0.88 l -0.92,0.08 q -2.28,0.2 -3.4,1.32 -1.08,1.12 -1.08,3.24 v 7.44 q 0,1.48 -0.8,2.28 -0.76,0.8 -2.24,0.8 z m 23.95502,0.08 q -3.16,0 -5.52,-1.24 -2.32,-1.24 -3.6,-3.56 -1.28,-2.32 -1.28,-5.48 0,-2.36 0.72,-4.24 0.72,-1.88 2.08,-3.2 1.4,-1.36 3.32,-2.04 1.92,-0.72 4.28,-0.72 3.16,0 5.48,1.24 2.36,1.24 3.64,3.52 1.32,2.28 1.32,5.44 0,2.4 -0.76,4.28 -0.72,1.88 -2.08,3.24 -1.36,1.36 -3.32,2.08 -1.92,0.68 -4.28,0.68 z m 0,-4.52 q 1.32,0 2.28,-0.64 0.96,-0.64 1.52,-1.88 0.56,-1.28 0.56,-3.24 0,-2.92 -1.2,-4.28 -1.2,-1.4 -3.16,-1.4 -1.28,0 -2.28,0.6 -0.96,0.6 -1.52,1.88 -0.52,1.24 -0.52,3.2 0,2.92 1.2,4.36 1.2,1.4 3.12,1.4 z m 25.06003,11.719996 q -2.16,0 -4.16,-0.36 -1.96,-0.36 -3.48,-1.08 -0.92,-0.4 -1.32,-1.04 -0.36,-0.64 -0.32,-1.359996 0.08,-0.72 0.48,-1.28 0.44,-0.56 1.08,-0.8 0.64,-0.2 1.36,0.12 1.76,0.8 3.24,1.04 1.52,0.24 2.6,0.24 2.56,0 3.84,-1.16 1.28,-1.16 1.28,-3.56 v -3.04 h 0.36 q -0.6,1.84 -2.48,3 -1.88,1.16 -4.16,1.16 -2.64,0 -4.6,-1.2 -1.96,-1.24 -3.04,-3.44 -1.08,-2.24 -1.08,-5.16 0,-2.2 0.6,-4 0.64,-1.8 1.76,-3.08 1.16,-1.28 2.76,-1.96 1.64,-0.72 3.6,-0.72 2.36,0 4.16,1.16 1.84,1.12 2.44,2.96 l -0.4,1.28 v -2.28 q 0,-1.48 0.76,-2.24 0.8,-0.8 2.24,-0.8 1.44,0 2.2,0.8 0.76,0.76 0.76,2.24 v 14.64 q 0,4.92 -2.72,7.399996 -2.68,2.52 -7.76,2.52 z m 0.12,-12.639996 q 1.36,0 2.32,-0.64 1,-0.64 1.56,-1.8 0.56,-1.2 0.56,-2.84 0,-2.48 -1.24,-3.84 -1.2,-1.4 -3.2,-1.4 -1.36,0 -2.36,0.64 -1,0.6 -1.56,1.8 -0.52,1.16 -0.52,2.8 0,2.48 1.2,3.88 1.2,1.4 3.24,1.4 z m 19.65999,5.36 q -1.52,0 -2.32,-0.8 -0.8,-0.8 -0.8,-2.28 v -14.2 q 0,-1.48 0.76,-2.24 0.8,-0.8 2.2,-0.8 1.44,0 2.2,0.8 0.76,0.76 0.76,2.24 v 2.08 h -0.4 q 0.48,-2.4 2.12,-3.72 1.64,-1.32 4.24,-1.48 1,-0.08 1.52,0.52 0.56,0.56 0.6,1.88 0.08,1.24 -0.52,1.96 -0.56,0.72 -1.92,0.88 l -0.92,0.08 q -2.28,0.2 -3.4,1.32 -1.08,1.12 -1.08,3.24 v 7.44 q 0,1.48 -0.8,2.28 -0.76,0.8 -2.24,0.8 z m 21.30006,0.08 q -2.16,0 -3.88,-0.84 -1.72,-0.84 -2.68,-2.28 -0.96,-1.44 -0.96,-3.24 0,-2.16 1.12,-3.4 1.12,-1.28 3.64,-1.8 2.52,-0.56 6.68,-0.56 h 2.12 v 3.12 h -2.08 q -2.04,0 -3.32,0.24 -1.24,0.2 -1.8,0.72 -0.52,0.52 -0.52,1.44 0,1.12 0.76,1.84 0.8,0.72 2.28,0.72 1.16,0 2.04,-0.52 0.92,-0.56 1.44,-1.48 0.52,-0.96 0.52,-2.16 v -4.6 q 0,-1.76 -0.8,-2.48 -0.8,-0.76 -2.72,-0.76 -1.08,0 -2.36,0.28 -1.24,0.24 -2.76,0.84 -0.88,0.4 -1.56,0.2 -0.68,-0.24 -1.04,-0.8 -0.36,-0.6 -0.36,-1.28 0,-0.72 0.4,-1.36 0.4,-0.68 1.32,-1 1.88,-0.76 3.52,-1.04 1.68,-0.28 3.08,-0.28 3.08,0 5.04,0.92 2,0.88 3,2.76 1,1.84 1,4.76 v 8.88 q 0,1.48 -0.72,2.28 -0.72,0.8 -2.08,0.8 -1.36,0 -2.12,-0.8 -0.72,-0.8 -0.72,-2.28 v -1.48 l 0.28,0.24 q -0.24,1.36 -1.04,2.36 -0.76,0.96 -1.96,1.52 -1.2,0.52 -2.76,0.52 z m 20.25997,-0.08 q -1.48,0 -2.28,-0.8 -0.76,-0.8 -0.76,-2.28 v -14.2 q 0,-1.48 0.76,-2.24 0.8,-0.8 2.2,-0.8 1.44,0 2.2,0.8 0.76,0.76 0.76,2.24 v 2.56 l -0.44,-1.6 q 0.8,-1.84 2.48,-2.96 1.68,-1.12 3.96,-1.12 2.28,0 3.8,1.08 1.52,1.08 2.16,3.32 h -0.56 q 0.88,-2.04 2.68,-3.2 1.84,-1.2 4.2,-1.2 2.28,0 3.72,0.92 1.48,0.88 2.2,2.72 0.72,1.8 0.72,4.6 v 9.08 q 0,1.48 -0.8,2.28 -0.76,0.8 -2.2,0.8 -1.48,0 -2.28,-0.8 -0.76,-0.8 -0.76,-2.28 v -8.88 q 0,-1.96 -0.64,-2.84 -0.6,-0.92 -2.08,-0.92 -1.72,0 -2.68,1.2 -0.96,1.2 -0.96,3.4 v 8.04 q 0,1.48 -0.8,2.28 -0.76,0.8 -2.2,0.8 -1.44,0 -2.24,-0.8 -0.8,-0.8 -0.8,-2.28 v -8.88 q 0,-1.96 -0.64,-2.84 -0.6,-0.92 -2.08,-0.92 -1.72,0 -2.68,1.2 -0.96,1.2 -0.96,3.4 v 8.04 q 0,3.08 -3,3.08 z m 37.06,0 q -1.48,0 -2.28,-0.8 -0.76,-0.8 -0.76,-2.28 v -14.2 q 0,-1.48 0.76,-2.24 0.8,-0.8 2.2,-0.8 1.44,0 2.2,0.8 0.76,0.76 0.76,2.24 v 2.56 l -0.44,-1.6 q 0.8,-1.84 2.48,-2.96 1.68,-1.12 3.96,-1.12 2.28,0 3.8,1.08 1.52,1.08 2.16,3.32 h -0.56 q 0.88,-2.04 2.68,-3.2 1.84,-1.2 4.2,-1.2 2.28,0 3.72,0.92 1.48,0.88 2.2,2.72 0.72,1.8 0.72,4.6 v 9.08 q 0,1.48 -0.8,2.28 -0.76,0.8 -2.2,0.8 -1.48,0 -2.28,-0.8 -0.76,-0.8 -0.76,-2.28 v -8.88 q 0,-1.96 -0.64,-2.84 -0.6,-0.92 -2.08,-0.92 -1.72,0 -2.68,1.2 -0.96,1.2 -0.96,3.4 v 8.04 q 0,1.48 -0.8,2.28 -0.76,0.8 -2.2,0.8 -1.44,0 -2.24,-0.8 -0.8,-0.8 -0.8,-2.28 v -8.88 q 0,-1.96 -0.64,-2.84 -0.6,-0.92 -2.08,-0.92 -1.72,0 -2.68,1.2 -0.96,1.2 -0.96,3.4 v 8.04 q 0,3.08 -3,3.08 z m 36.97999,-0.04 q -1.48,0 -2.28,-0.84 -0.76,-0.88 -0.76,-2.44 v -13.68 q 0,-1.6 0.76,-2.44 0.8,-0.88 2.28,-0.88 1.44,0 2.2,0.88 0.8,0.84 0.8,2.44 v 13.68 q 0,1.56 -0.76,2.44 -0.76,0.84 -2.24,0.84 z m 0,-23.56 q -1.68,0 -2.6,-0.76 -0.88,-0.8 -0.88,-2.24 0,-1.48 0.88,-2.24 0.92,-0.8 2.6,-0.8 1.68,0 2.56,0.8 0.88,0.76 0.88,2.24 0,1.44 -0.88,2.24 -0.88,0.76 -2.56,0.76 z m 12.21999,23.6 q -1.48,0 -2.28,-0.8 -0.76,-0.8 -0.76,-2.28 v -14.2 q 0,-1.48 0.76,-2.24 0.8,-0.8 2.2,-0.8 1.44,0 2.2,0.8 0.76,0.76 0.76,2.24 v 2.28 l -0.44,-1.32 q 0.92,-1.96 2.72,-3 1.84,-1.08 4.16,-1.08 2.36,0 3.88,0.92 1.52,0.88 2.28,2.72 0.76,1.8 0.76,4.6 v 9.08 q 0,1.48 -0.8,2.28 -0.76,0.8 -2.24,0.8 -1.44,0 -2.24,-0.8 -0.76,-0.8 -0.76,-2.28 v -8.8 q 0,-2.04 -0.76,-2.92 -0.72,-0.92 -2.24,-0.92 -1.92,0 -3.08,1.2 -1.12,1.2 -1.12,3.2 v 8.24 q 0,3.08 -3,3.08 z m 31.69997,7.279996 q -2.16,0 -4.16,-0.36 -1.96,-0.36 -3.48,-1.08 -0.92,-0.4 -1.32,-1.04 -0.36,-0.64 -0.32,-1.359996 0.08,-0.72 0.48,-1.28 0.44,-0.56 1.08,-0.8 0.64,-0.2 1.36,0.12 1.76,0.8 3.24,1.04 1.52,0.24 2.6,0.24 2.56,0 3.84,-1.16 1.28,-1.16 1.28,-3.56 v -3.04 h 0.36 q -0.6,1.84 -2.48,3 -1.88,1.16 -4.16,1.16 -2.64,0 -4.6,-1.2 -1.96,-1.24 -3.04,-3.44 -1.08,-2.24 -1.08,-5.16 0,-2.2 0.6,-4 0.64,-1.8 1.76,-3.08 1.16,-1.28 2.76,-1.96 1.64,-0.72 3.6,-0.72 2.36,0 4.16,1.16 1.84,1.12 2.44,2.96 l -0.4,1.28 v -2.28 q 0,-1.48 0.76,-2.24 0.8,-0.8 2.24,-0.8 1.44,0 2.2,0.8 0.76,0.76 0.76,2.24 v 14.64 q 0,4.92 -2.72,7.399996 -2.68,2.52 -7.76,2.52 z m 0.12,-12.639996 q 1.36,0 2.32,-0.64 1,-0.64 1.56,-1.8 0.56,-1.2 0.56,-2.84 0,-2.48 -1.24,-3.84 -1.2,-1.4 -3.2,-1.4 -1.36,0 -2.36,0.64 -1,0.6 -1.56,1.8 -0.52,1.16 -0.52,2.8 0,2.48 1.2,3.88 1.2,1.4 3.24,1.4 z m 35.83998,5.44 q -2.16,0 -3.88,-0.84 -1.72,-0.84 -2.68,-2.28 -0.96,-1.44 -0.96,-3.24 0,-2.16 1.12,-3.4 1.12,-1.28 3.64,-1.8 2.52,-0.56 6.68,-0.56 h 2.12 v 3.12 h -2.08 q -2.04,0 -3.32,0.24 -1.24,0.2 -1.8,0.72 -0.52,0.52 -0.52,1.44 0,1.12 0.76,1.84 0.8,0.72 2.28,0.72 1.16,0 2.04,-0.52 0.92,-0.56 1.44,-1.48 0.52,-0.96 0.52,-2.16 v -4.6 q 0,-1.76 -0.8,-2.48 -0.8,-0.76 -2.72,-0.76 -1.08,0 -2.36,0.28 -1.24,0.24 -2.76,0.84 -0.88,0.4 -1.56,0.2 -0.68,-0.24 -1.04,-0.8 -0.36,-0.6 -0.36,-1.28 0,-0.72 0.4,-1.36 0.4,-0.68 1.32,-1 1.88,-0.76 3.52,-1.04 1.68,-0.28 3.08,-0.28 3.08,0 5.04,0.92 2,0.88 3,2.76 1,1.84 1,4.76 v 8.88 q 0,1.48 -0.72,2.28 -0.72,0.8 -2.08,0.8 -1.36,0 -2.12,-0.8 -0.72,-0.8 -0.72,-2.28 v -1.48 l 0.28,0.24 q -0.24,1.36 -1.04,2.36 -0.76,0.96 -1.96,1.52 -1.2,0.52 -2.76,0.52 z m 20.17997,-0.08 q -1.48,0 -2.28,-0.8 -0.76,-0.8 -0.76,-2.28 v -14.2 q 0,-1.48 0.76,-2.24 0.8,-0.8 2.2,-0.8 1.44,0 2.2,0.8 0.76,0.76 0.76,2.24 v 2.28 l -0.44,-1.32 q 0.92,-1.96 2.72,-3 1.84,-1.08 4.16,-1.08 2.36,0 3.88,0.92 1.52,0.88 2.28,2.72 0.76,1.8 0.76,4.6 v 9.08 q 0,1.48 -0.8,2.28 -0.76,0.8 -2.24,0.8 -1.44,0 -2.24,-0.8 -0.76,-0.8 -0.76,-2.28 v -8.8 q 0,-2.04 -0.76,-2.92 -0.72,-0.92 -2.24,-0.92 -1.92,0 -3.08,1.2 -1.12,1.2 -1.12,3.2 v 8.24 q 0,3.08 -3,3.08 z m 29.89996,0.08 q -2.56,0 -4.52,-1.24 -1.92,-1.24 -3,-3.56 -1.08,-2.32 -1.08,-5.48 0,-3.16 1.08,-5.44 1.08,-2.28 3,-3.52 1.96,-1.24 4.52,-1.24 2.32,0 4.08,1.12 1.8,1.12 2.44,2.92 h -0.44 v -9.48 q 0,-1.52 0.76,-2.28 0.76,-0.8 2.24,-0.8 1.44,0 2.24,0.8 0.8,0.76 0.8,2.28 v 22.76 q 0,1.48 -0.8,2.28 -0.76,0.8 -2.2,0.8 -1.44,0 -2.24,-0.8 -0.76,-0.8 -0.76,-2.28 v -2.72 l 0.44,1.56 q -0.56,1.96 -2.4,3.16 -1.8,1.16 -4.16,1.16 z m 1.8,-4.52 q 1.32,0 2.28,-0.64 0.96,-0.64 1.52,-1.88 0.56,-1.28 0.56,-3.24 0,-2.92 -1.2,-4.28 -1.2,-1.4 -3.16,-1.4 -1.28,0 -2.28,0.6 -0.96,0.6 -1.52,1.88 -0.52,1.24 -0.52,3.2 0,2.92 1.2,4.36 1.2,1.4 3.12,1.4 z"
     id="text5"
     aria-label="Programming and" /><path
     style="font-weight:800;font-size:40px;line-height:0;font-family:Nunito;-inkscape-font-specification:'Nunito Ultra-Bold';letter-spacing:1.5px;word-spacing:0px;stroke-width:1.3;stroke-linecap:round;stroke-linejoin:round"
     d="m 298.32226,142.44568 q -1.36,0 -2.08,-0.76 -0.72,-0.76 -0.72,-2.12 v -23.16 q 0,-1.36 0.76,-2.12 0.8,-0.76 2.16,-0.76 1.2,0 1.88,0.48 0.72,0.44 1.32,1.56 l 9.24,16.88 h -1.36 l 9.24,-16.88 q 0.6,-1.12 1.28,-1.56 0.72,-0.48 1.88,-0.48 1.36,0 2.08,0.76 0.76,0.76 0.76,2.12 v 23.16 q 0,1.36 -0.72,2.12 -0.72,0.76 -2.08,0.76 -1.36,0 -2.12,-0.76 -0.72,-0.76 -0.72,-2.12 v -16.2 h 0.88 l -7.44,13.32 q -0.48,0.76 -1.04,1.16 -0.52,0.36 -1.4,0.36 -0.88,0 -1.44,-0.4 -0.56,-0.4 -1,-1.12 l -7.52,-13.36 h 0.96 v 16.24 q 0,1.36 -0.72,2.12 -0.68,0.76 -2.08,0.76 z m 39.77998,0.08 q -2.16,0 -3.88,-0.84 -1.72,-0.84 -2.68,-2.28 -0.96,-1.44 -0.96,-3.24 0,-2.16 1.12,-3.4 1.12,-1.28 3.64,-1.8 2.52,-0.56 6.68,-0.56 h 2.12 v 3.12 h -2.08 q -2.04,0 -3.32,0.24 -1.24,0.2 -1.8,0.72 -0.52,0.52 -0.52,1.44 0,1.12 0.76,1.84 0.8,0.72 2.28,0.72 1.16,0 2.04,-0.52 0.92,-0.56 1.44,-1.48 0.52,-0.96 0.52,-2.16 v -4.6 q 0,-1.76 -0.8,-2.48 -0.8,-0.76 -2.72,-0.76 -1.08,0 -2.36,0.28 -1.24,0.24 -2.76,0.84 -0.88,0.4 -1.56,0.2 -0.68,-0.24 -1.04,-0.8 -0.36,-0.6 -0.36,-1.28 0,-0.72 0.4,-1.36 0.4,-0.68 1.32,-1 1.88,-0.76 3.52,-1.04 1.68,-0.28 3.08,-0.28 3.08,0 5.04,0.92 2,0.88 3,2.76 1,1.84 1,4.76 v 8.88 q 0,1.48 -0.72,2.28 -0.72,0.8 -2.08,0.8 -1.36,0 -2.12,-0.8 -0.72,-0.8 -0.72,-2.28 v -1.48 l 0.28,0.24 q -0.24,1.36 -1.04,2.36 -0.76,0.96 -1.96,1.52 -1.2,0.52 -2.76,0.52 z m 26.77997,0 q -2.76,0 -4.64,-0.92 -1.84,-0.92 -2.76,-2.68 -0.88,-1.76 -0.88,-4.44 v -7.52 h -1.68 q -1.12,0 -1.76,-0.6 -0.6,-0.6 -0.6,-1.64 0,-1.12 0.6,-1.68 0.64,-0.6 1.76,-0.6 h 1.68 v -3.04 q 0,-1.52 0.8,-2.28 0.8,-0.8 2.24,-0.8 1.48,0 2.24,0.8 0.76,0.76 0.76,2.28 v 3.04 h 3.8 q 1.12,0 1.72,0.6 0.6,0.56 0.6,1.68 0,1.04 -0.6,1.64 -0.6,0.6 -1.72,0.6 h -3.8 v 7.28 q 0,1.68 0.76,2.52 0.8,0.84 2.52,0.84 0.6,0 1.12,-0.12 0.52,-0.12 0.96,-0.16 0.56,-0.04 0.92,0.36 0.36,0.36 0.36,1.64 0,0.96 -0.32,1.68 -0.32,0.72 -1.12,1.04 -0.52,0.2 -1.44,0.32 -0.88,0.16 -1.52,0.16 z m 11.66766,-0.08 q -1.48,0 -2.28,-0.8 -0.76,-0.8 -0.76,-2.28 v -22.76 q 0,-1.52 0.76,-2.28 0.8,-0.8 2.28,-0.8 1.44,0 2.2,0.8 0.8,0.76 0.8,2.28 v 9.52 h -0.56 q 0.92,-1.96 2.72,-3 1.84,-1.08 4.16,-1.08 2.36,0 3.88,0.92 1.52,0.88 2.28,2.72 0.76,1.8 0.76,4.6 v 9.08 q 0,1.48 -0.8,2.28 -0.76,0.8 -2.24,0.8 -1.44,0 -2.24,-0.8 -0.76,-0.8 -0.76,-2.28 v -8.8 q 0,-2.04 -0.76,-2.92 -0.72,-0.92 -2.24,-0.92 -1.92,0 -3.08,1.2 -1.12,1.2 -1.12,3.2 v 8.24 q 0,3.08 -3,3.08 z m 32.45997,0.08 q -3.48,0 -6,-1.24 -2.48,-1.28 -3.84,-3.56 -1.32,-2.32 -1.32,-5.44 0,-3.04 1.28,-5.32 1.28,-2.32 3.56,-3.6 2.32,-1.32 5.24,-1.32 2.12,0 3.84,0.72 1.72,0.68 2.96,2 1.24,1.28 1.88,3.16 0.64,1.84 0.64,4.12 0,0.76 -0.48,1.16 -0.48,0.36 -1.4,0.36 h -12.56 v -3.12 h 10.08 l -0.64,0.56 q 0,-1.64 -0.48,-2.72 -0.48,-1.12 -1.4,-1.68 -0.88,-0.56 -2.2,-0.56 -1.48,0 -2.52,0.68 -1.04,0.68 -1.6,1.96 -0.56,1.28 -0.56,3.08 v 0.32 q 0,3.04 1.4,4.48 1.44,1.44 4.24,1.44 0.96,0 2.2,-0.24 1.24,-0.24 2.32,-0.76 0.92,-0.44 1.64,-0.28 0.72,0.12 1.12,0.64 0.4,0.52 0.44,1.2 0.08,0.68 -0.28,1.36 -0.36,0.64 -1.2,1.08 -1.36,0.76 -3.08,1.12 -1.68,0.4 -3.28,0.4 z m 16.37999,-0.08 q -1.48,0 -2.28,-0.8 -0.76,-0.8 -0.76,-2.28 v -14.2 q 0,-1.48 0.76,-2.24 0.8,-0.8 2.2,-0.8 1.44,0 2.2,0.8 0.76,0.76 0.76,2.24 v 2.56 l -0.44,-1.6 q 0.8,-1.84 2.48,-2.96 1.68,-1.12 3.96,-1.12 2.28,0 3.8,1.08 1.52,1.08 2.16,3.32 h -0.56 q 0.88,-2.04 2.68,-3.2 1.84,-1.2 4.2,-1.2 2.28,0 3.72,0.92 1.48,0.88 2.2,2.72 0.72,1.8 0.72,4.6 v 9.08 q 0,1.48 -0.8,2.28 -0.76,0.8 -2.2,0.8 -1.48,0 -2.28,-0.8 -0.76,-0.8 -0.76,-2.28 v -8.88 q 0,-1.96 -0.64,-2.84 -0.6,-0.92 -2.08,-0.92 -1.72,0 -2.68,1.2 -0.96,1.2 -0.96,3.4 v 8.04 q 0,1.48 -0.8,2.28 -0.76,0.8 -2.2,0.8 -1.44,0 -2.24,-0.8 -0.8,-0.8 -0.8,-2.28 v -8.88 q 0,-1.96 -0.64,-2.84 -0.6,-0.92 -2.08,-0.92 -1.72,0 -2.68,1.2 -0.96,1.2 -0.96,3.4 v 8.04 q 0,3.08 -3,3.08 z m 40.58,0.08 q -2.16,0 -3.88,-0.84 -1.72,-0.84 -2.68,-2.28 -0.96,-1.44 -0.96,-3.24 0,-2.16 1.12,-3.4 1.12,-1.28 3.64,-1.8 2.52,-0.56 6.68,-0.56 h 2.12 v 3.12 h -2.08 q -2.04,0 -3.32,0.24 -1.24,0.2 -1.8,0.72 -0.52,0.52 -0.52,1.44 0,1.12 0.76,1.84 0.8,0.72 2.28,0.72 1.16,0 2.04,-0.52 0.92,-0.56 1.44,-1.48 0.52,-0.96 0.52,-2.16 v -4.6 q 0,-1.76 -0.8,-2.48 -0.8,-0.76 -2.72,-0.76 -1.08,0 -2.36,0.28 -1.24,0.24 -2.76,0.84 -0.88,0.4 -1.56,0.2 -0.68,-0.24 -1.04,-0.8 -0.36,-0.6 -0.36,-1.28 0,-0.72 0.4,-1.36 0.4,-0.68 1.32,-1 1.88,-0.76 3.52,-1.04 1.68,-0.28 3.08,-0.28 3.08,0 5.04,0.92 2,0.88 3,2.76 1,1.84 1,4.76 v 8.88 q 0,1.48 -0.72,2.28 -0.72,0.8 -2.08,0.8 -1.36,0 -2.12,-0.8 -0.72,-0.8 -0.72,-2.28 v -1.48 l 0.28,0.24 q -0.24,1.36 -1.04,2.36 -0.76,0.96 -1.96,1.52 -1.2,0.52 -2.76,0.52 z m 26.77996,0 q -2.76,0 -4.64,-0.92 -1.84,-0.92 -2.76,-2.68 -0.88,-1.76 -0.88,-4.44 v -7.52 h -1.68 q -1.12,0 -1.76,-0.6 -0.6,-0.6 -0.6,-1.64 0,-1.12 0.6,-1.68 0.64,-0.6 1.76,-0.6 h 1.68 v -3.04 q 0,-1.52 0.8,-2.28 0.8,-0.8 2.24,-0.8 1.48,0 2.24,0.8 0.76,0.76 0.76,2.28 v 3.04 h 3.8 q 1.12,0 1.72,0.6 0.6,0.56 0.6,1.68 0,1.04 -0.6,1.64 -0.6,0.6 -1.72,0.6 h -3.8 v 7.28 q 0,1.68 0.76,2.52 0.8,0.84 2.52,0.84 0.6,0 1.12,-0.12 0.52,-0.12 0.96,-0.16 0.56,-0.04 0.92,0.36 0.36,0.36 0.36,1.64 0,0.96 -0.32,1.68 -0.32,0.72 -1.12,1.04 -0.52,0.2 -1.44,0.32 -0.88,0.16 -1.52,0.16 z m 11.66766,-0.12 q -1.48,0 -2.28,-0.84 -0.76,-0.88 -0.76,-2.44 v -13.68 q 0,-1.6 0.76,-2.44 0.8,-0.88 2.28,-0.88 1.44,0 2.2,0.88 0.8,0.84 0.8,2.44 v 13.68 q 0,1.56 -0.76,2.44 -0.76,0.84 -2.24,0.84 z m 0,-23.56 q -1.68,0 -2.6,-0.76 -0.88,-0.8 -0.88,-2.24 0,-1.48 0.88,-2.24 0.92,-0.8 2.6,-0.8 1.68,0 2.56,0.8 0.88,0.76 0.88,2.24 0,1.44 -0.88,2.24 -0.88,0.76 -2.56,0.76 z m 18.73999,23.68 q -3.2,0 -5.6,-1.24 -2.36,-1.28 -3.64,-3.6 -1.28,-2.32 -1.28,-5.48 0,-2.36 0.72,-4.24 0.72,-1.88 2.08,-3.2 1.4,-1.32 3.36,-2 1.96,-0.72 4.36,-0.72 1.24,0 2.64,0.32 1.4,0.28 2.76,1 0.8,0.36 1.08,1.04 0.32,0.64 0.24,1.36 -0.08,0.68 -0.52,1.24 -0.4,0.52 -1.04,0.72 -0.64,0.16 -1.44,-0.24 -0.76,-0.44 -1.6,-0.64 -0.8,-0.2 -1.52,-0.2 -1.2,0 -2.12,0.4 -0.92,0.36 -1.56,1.08 -0.6,0.68 -0.96,1.72 -0.32,1.04 -0.32,2.4 0,2.64 1.28,4.16 1.32,1.48 3.68,1.48 0.72,0 1.52,-0.16 0.8,-0.2 1.6,-0.64 0.8,-0.4 1.44,-0.2 0.64,0.2 1,0.76 0.4,0.52 0.44,1.24 0.08,0.68 -0.24,1.36 -0.28,0.64 -1.04,1 -1.36,0.68 -2.72,0.96 -1.36,0.32 -2.6,0.32 z m 18.58002,0 q -1.76,0 -3.64,-0.32 -1.84,-0.32 -3.36,-1.08 -0.8,-0.4 -1.16,-1 -0.32,-0.64 -0.28,-1.28 0.04,-0.64 0.4,-1.16 0.4,-0.52 1,-0.68 0.64,-0.2 1.4,0.12 1.64,0.68 3,0.96 1.36,0.28 2.68,0.28 1.72,0 2.48,-0.52 0.8,-0.56 0.8,-1.44 0,-0.8 -0.52,-1.2 -0.52,-0.4 -1.52,-0.56 l -4.2,-0.76 q -2.48,-0.44 -3.84,-1.8 -1.32,-1.4 -1.32,-3.56 0,-2 1.12,-3.44 1.12,-1.48 3.08,-2.24 2,-0.8 4.52,-0.8 1.8,0 3.32,0.32 1.52,0.32 2.92,1.04 0.72,0.36 1,0.96 0.32,0.6 0.2,1.24 -0.08,0.64 -0.48,1.16 -0.4,0.52 -1.04,0.68 -0.6,0.16 -1.4,-0.16 -1.28,-0.6 -2.36,-0.84 -1.08,-0.28 -2.08,-0.28 -1.8,0 -2.6,0.6 -0.8,0.56 -0.8,1.44 0,0.68 0.44,1.16 0.48,0.44 1.44,0.6 l 4.2,0.76 q 2.6,0.44 3.96,1.76 1.36,1.28 1.36,3.52 0,3.04 -2.4,4.8 -2.36,1.72 -6.32,1.72 z"
     id="text5-0"
     aria-label="Mathematics" /><path
     style="font-weight:800;font-size:40px;line-height:0;font-family:Nunito;-inkscape-font-specification:'Nunito Ultra-Bold';letter-spacing:1.5px;word-spacing:0px;stroke-width:1.3;stroke-linecap:round;stroke-linejoin:round"
     d="m 305.82424,189.28233 q -1.68,0 -3.44,-0.28 -1.72,-0.24 -3.32,-0.72 -1.56,-0.48 -2.8,-1.2 -0.88,-0.48 -1.24,-1.24 -0.36,-0.8 -0.28,-1.6 0.12,-0.8 0.6,-1.4 0.52,-0.64 1.28,-0.8 0.8,-0.2 1.76,0.28 1.64,0.92 3.56,1.36 1.96,0.44 3.88,0.44 2.92,0 4.16,-0.88 1.24,-0.92 1.24,-2.28 0,-1.16 -0.88,-1.84 -0.88,-0.68 -3.08,-1.16 l -4.52,-0.96 q -3.84,-0.8 -5.72,-2.72 -1.84,-1.96 -1.84,-5.12 0,-2 0.84,-3.64 0.84,-1.64 2.36,-2.84 1.52,-1.2 3.6,-1.84 2.12,-0.64 4.64,-0.64 2.24,0 4.4,0.56 2.16,0.52 3.8,1.56 0.8,0.48 1.08,1.24 0.32,0.72 0.2,1.48 -0.08,0.72 -0.6,1.28 -0.48,0.56 -1.24,0.72 -0.76,0.16 -1.84,-0.36 -1.32,-0.68 -2.8,-1 -1.48,-0.32 -3.04,-0.32 -1.68,0 -2.88,0.44 -1.16,0.44 -1.8,1.24 -0.6,0.8 -0.6,1.84 0,1.16 0.84,1.88 0.84,0.72 2.92,1.16 l 4.52,0.96 q 3.92,0.84 5.84,2.72 1.92,1.84 1.92,4.88 0,2 -0.8,3.64 -0.8,1.6 -2.32,2.76 -1.52,1.16 -3.64,1.8 -2.12,0.6 -4.76,0.6 z m 25.98003,0 q -3.16,0 -5.52,-1.24 -2.32,-1.24 -3.6,-3.56 -1.28,-2.32 -1.28,-5.48 0,-2.36 0.72,-4.24 0.72,-1.88 2.08,-3.2 1.4,-1.36 3.32,-2.04 1.92,-0.72 4.28,-0.72 3.16,0 5.48,1.24 2.36,1.24 3.64,3.52 1.32,2.28 1.32,5.44 0,2.4 -0.76,4.28 -0.72,1.88 -2.08,3.24 -1.36,1.36 -3.32,2.08 -1.92,0.68 -4.28,0.68 z m 0,-4.52 q 1.32,0 2.28,-0.64 0.96,-0.64 1.52,-1.88 0.56,-1.28 0.56,-3.24 0,-2.92 -1.2,-4.28 -1.2,-1.4 -3.16,-1.4 -1.28,0 -2.28,0.6 -0.96,0.6 -1.52,1.88 -0.52,1.24 -0.52,3.2 0,2.92 1.2,4.36 1.2,1.4 3.12,1.4 z m 25.18002,4.52 q -3.2,0 -5.6,-1.24 -2.36,-1.28 -3.64,-3.6 -1.28,-2.32 -1.28,-5.48 0,-2.36 0.72,-4.24 0.72,-1.88 2.08,-3.2 1.4,-1.32 3.36,-2 1.96,-0.72 4.36,-0.72 1.24,0 2.64,0.32 1.4,0.28 2.76,1 0.8,0.36 1.08,1.04 0.32,0.64 0.24,1.36 -0.08,0.68 -0.52,1.24 -0.4,0.52 -1.04,0.72 -0.64,0.16 -1.44,-0.24 -0.76,-0.44 -1.6,-0.64 -0.8,-0.2 -1.52,-0.2 -1.2,0 -2.12,0.4 -0.92,0.36 -1.56,1.08 -0.6,0.68 -0.96,1.72 -0.32,1.04 -0.32,2.4 0,2.64 1.28,4.16 1.32,1.48 3.68,1.48 0.72,0 1.52,-0.16 0.8,-0.2 1.6,-0.64 0.8,-0.4 1.44,-0.2 0.64,0.2 1,0.76 0.4,0.52 0.44,1.24 0.08,0.68 -0.24,1.36 -0.28,0.64 -1.04,1 -1.36,0.68 -2.72,0.96 -1.36,0.32 -2.6,0.32 z m 14.10003,-0.12 q -1.48,0 -2.28,-0.84 -0.76,-0.88 -0.76,-2.44 v -13.68 q 0,-1.6 0.76,-2.44 0.8,-0.88 2.28,-0.88 1.44,0 2.2,0.88 0.8,0.84 0.8,2.44 v 13.68 q 0,1.56 -0.76,2.44 -0.76,0.84 -2.24,0.84 z m 0,-23.56 q -1.68,0 -2.6,-0.76 -0.88,-0.8 -0.88,-2.24 0,-1.48 0.88,-2.24 0.92,-0.8 2.6,-0.8 1.68,0 2.56,0.8 0.88,0.76 0.88,2.24 0,1.44 -0.88,2.24 -0.88,0.76 -2.56,0.76 z m 19.37999,23.68 q -3.48,0 -6,-1.24 -2.48,-1.28 -3.84,-3.56 -1.32,-2.32 -1.32,-5.44 0,-3.04 1.28,-5.32 1.28,-2.32 3.56,-3.6 2.32,-1.32 5.24,-1.32 2.12,0 3.84,0.72 1.72,0.68 2.96,2 1.24,1.28 1.88,3.16 0.64,1.84 0.64,4.12 0,0.76 -0.48,1.16 -0.48,0.36 -1.4,0.36 h -12.56 v -3.12 h 10.08 l -0.64,0.56 q 0,-1.64 -0.48,-2.72 -0.48,-1.12 -1.4,-1.68 -0.88,-0.56 -2.2,-0.56 -1.48,0 -2.52,0.68 -1.04,0.68 -1.6,1.96 -0.56,1.28 -0.56,3.08 v 0.32 q 0,3.04 1.4,4.48 1.44,1.44 4.24,1.44 0.96,0 2.2,-0.24 1.24,-0.24 2.32,-0.76 0.92,-0.44 1.64,-0.28 0.72,0.12 1.12,0.64 0.4,0.52 0.44,1.2 0.08,0.68 -0.28,1.36 -0.36,0.64 -1.2,1.08 -1.36,0.76 -3.08,1.12 -1.68,0.4 -3.28,0.4 z m 22.78234,0 q -2.76,0 -4.64,-0.92 -1.84,-0.92 -2.76,-2.68 -0.88,-1.76 -0.88,-4.44 v -7.52 h -1.68 q -1.12,0 -1.76,-0.6 -0.6,-0.6 -0.6,-1.64 0,-1.12 0.6,-1.68 0.64,-0.6 1.76,-0.6 h 1.68 v -3.04 q 0,-1.52 0.8,-2.28 0.8,-0.8 2.24,-0.8 1.48,0 2.24,0.8 0.76,0.76 0.76,2.28 v 3.04 h 3.8 q 1.12,0 1.72,0.6 0.6,0.56 0.6,1.68 0,1.04 -0.6,1.64 -0.6,0.6 -1.72,0.6 h -3.8 v 7.28 q 0,1.68 0.76,2.52 0.8,0.84 2.52,0.84 0.6,0 1.12,-0.12 0.52,-0.12 0.96,-0.16 0.56,-0.04 0.92,0.36 0.36,0.36 0.36,1.64 0,0.96 -0.32,1.68 -0.32,0.72 -1.12,1.04 -0.52,0.2 -1.44,0.32 -0.88,0.16 -1.52,0.16 z m 13.72498,7.12 q -1.04,0 -1.72,-0.56 -0.68,-0.56 -0.8,-1.48 -0.12,-0.88 0.32,-1.88 l 2.68,-5.92 v 2.48 l -7.08,-16.24 q -0.4,-1.04 -0.28,-1.92 0.16,-0.92 0.88,-1.44 0.76,-0.56 2.08,-0.56 1.08,0 1.72,0.52 0.68,0.48 1.24,1.88 l 4.72,12 h -1.28 l 4.88,-12.04 q 0.56,-1.36 1.24,-1.84 0.72,-0.52 1.92,-0.52 1.04,0 1.64,0.56 0.64,0.52 0.76,1.4 0.16,0.88 -0.32,1.92 l -9.4,21.32 q -0.6,1.36 -1.36,1.84 -0.72,0.48 -1.84,0.48 z"
     id="text6"
     aria-label="Society" /></svg>
